<svg width="24" height="24" viewBox="0 0 24 24" fill="red" xmlns="http://www.w3.org/2000/svg">
<path d="M20.4756 3.52444C18.2028 1.25166 15.1928 0 12 0C8.8072 0 5.79717 1.25166 3.52444 3.52444C1.25166 5.79717 0 8.8072 0 12C0 15.1928 1.25166 18.2028 3.52444 20.4756C5.79717 22.7483 8.8072 24 12 24C15.1928 24 18.2028 22.7483 20.4756 20.4756C22.7483 18.2028 24 15.1928 24 12C24 8.8072 22.7483 5.79717 20.4756 3.52444ZM12 22.5938C6.15858 22.5938 1.40625 17.8414 1.40625 12C1.40625 6.15858 6.15858 1.40625 12 1.40625C17.8414 1.40625 22.5938 6.15858 22.5938 12C22.5938 17.8414 17.8414 22.5938 12 22.5938Z" fill="white"/>
<path d="M12 2.85938C6.95986 2.85938 2.85938 6.95986 2.85938 12C2.85938 17.0401 6.95986 21.1406 12 21.1406C17.0401 21.1406 21.1406 17.0401 21.1406 12C21.1406 6.95986 17.0401 2.85938 12 2.85938ZM12 19.7344C7.73527 19.7344 4.26562 16.2647 4.26562 12C4.26562 7.73527 7.73527 4.26562 12 4.26562C16.2647 4.26562 19.7344 7.73527 19.7344 12C19.7344 16.2647 16.2647 19.7344 12 19.7344Z" fill="white"/>
<path d="M14.1094 9.8835C14.1094 10.2718 14.4242 10.5866 14.8125 10.5866C15.2008 10.5866 15.5156 10.2718 15.5156 9.8835C15.5156 9.10481 15.1129 8.35612 14.4106 7.82944C13.9309 7.46967 13.3407 7.22934 12.7031 7.12711V6.36783C12.7031 5.97952 12.3883 5.6647 12 5.6647C11.6117 5.6647 11.2969 5.97952 11.2969 6.36783V7.12711C10.6592 7.22934 10.069 7.46967 9.58941 7.82944C8.88713 8.35612 8.48438 9.10481 8.48438 9.8835C8.48438 10.6622 8.88713 11.4108 9.58941 11.9376C10.0691 12.2973 10.6593 12.5377 11.2969 12.6399V15.4247C10.4869 15.2267 9.89062 14.7011 9.89062 14.1022C9.89062 13.7139 9.57581 13.3991 9.1875 13.3991C8.79919 13.3991 8.48438 13.7139 8.48438 14.1022C8.48438 14.8809 8.88713 15.6296 9.58941 16.1563C10.0691 16.5161 10.6593 16.7564 11.2969 16.8586V17.625C11.2969 18.0133 11.6117 18.3281 12 18.3281C12.3883 18.3281 12.7031 18.0133 12.7031 17.625V16.8586C13.3408 16.7564 13.931 16.5161 14.4106 16.1563C15.1129 15.6296 15.5156 14.8809 15.5156 14.1022C15.5156 13.3236 15.1129 12.5749 14.4106 12.0482C13.9309 11.6884 13.3407 11.4481 12.7031 11.3459V8.56106C13.5131 8.75906 14.1094 9.28467 14.1094 9.8835ZM9.89062 9.8835C9.89062 9.28467 10.4869 8.75902 11.2969 8.56106V11.2059C10.4869 11.008 9.89062 10.4823 9.89062 9.8835ZM14.1094 14.1022C14.1094 14.7011 13.5131 15.2267 12.7031 15.4247V12.7799C13.5131 12.9778 14.1094 13.5034 14.1094 14.1022Z" fill="white"/>
</svg>
