<svg xmlns="http://www.w3.org/2000/svg" width="238.38" height="111.42" viewBox="0 0 238.38 111.42">
  <g id="Grupo_4" data-name="Grupo 4" transform="translate(-196.21 -455.17)">
    <path id="Caminho_6" data-name="Caminho 6" d="M329.43,523.5a17.3,17.3,0,0,0-22.18-9.83l-8.4,2.89a17.679,17.679,0,0,0-3.57-3.22c12.02-10.34,20.44-18.47,20.44-31.36,0-14.14-10.61-25.21-24.16-25.21a22.632,22.632,0,0,0-12.27,3.56A22.7,22.7,0,0,0,267,456.77a23.976,23.976,0,0,0-23.12,17.83,11.8,11.8,0,0,0,.12,6.67,11.808,11.808,0,0,0,2.83,12.5,11.743,11.743,0,0,0,2.23,5.42l.17.22c.87,1.13,1.82,2.23,2.82,3.31H247.2a15.669,15.669,0,0,0-10.19-3.78H225.67a11.909,11.909,0,0,0-11.89,11.88v34.02a11.9,11.9,0,0,0,11.89,11.9h11.36a15.63,15.63,0,0,0,7.98-2.22l8.21,4.92a34.105,34.105,0,0,0,31.6,1.83l35.1-15.45A17.28,17.28,0,0,0,329.43,523.5Zm-81.6-36.53c-.14.29-.24.6-.35.9a7.686,7.686,0,0,1-.34-1.51A6.822,6.822,0,0,0,247.83,486.97Z" transform="translate(-17.57 2.29)" fill="#3d1c47"/>
    <g id="Grupo_9" transform="translate(-17.57 749.29)">
      <path id="Caminho_7" data-name="Caminho 7" d="M446.77-282.44c-2.38-2.27-6.65-4.99-13.48-4.99a20.515,20.515,0,0,0-8.66,1.78,23.778,23.778,0,0,0-9.05-1.78,20.9,20.9,0,0,0-10.88,2.78,18.607,18.607,0,0,0-10.21-2.78,31.85,31.85,0,0,0-7.98.96,9.155,9.155,0,0,0-2.03-.6l-.44-.08a16.855,16.855,0,0,0-7.53.32,9.949,9.949,0,0,0-2.32-.27h-4.83a9.872,9.872,0,0,0-4.14.91,14.943,14.943,0,0,0-1.58-.58,10,10,0,0,0-9.65-7.35H347.5a9.943,9.943,0,0,0-6.34,2.27,9.954,9.954,0,0,0-3.92-.8h-8.75a10,10,0,0,0-9.51,6.91l-7.92,24.37a10.008,10.008,0,0,0,1.42,8.97,10,10,0,0,0,8.09,4.12h7.21a9.966,9.966,0,0,0,5.15-1.43,10.028,10.028,0,0,0,5.16,1.43h7.17a10.358,10.358,0,0,0,1.12-.07,10.362,10.362,0,0,0,1.12.07h5.06a9.6,9.6,0,0,0,1.94-.19,16.957,16.957,0,0,0,4.28.52,16.3,16.3,0,0,0,6.39-1.26,9.915,9.915,0,0,0,4.18.93h6.49a9.943,9.943,0,0,0,5.83-1.88,15.776,15.776,0,0,0,8.33,2.22,20.047,20.047,0,0,0,5.18-.62,9.962,9.962,0,0,0,2.39.29h4.5a9.84,9.84,0,0,0,4.74-1.2,21.436,21.436,0,0,0,8.24,1.53,21.145,21.145,0,0,0,9.3-2.05,21.7,21.7,0,0,0,9.54,2.05,31.585,31.585,0,0,0,5.69-.46,21.341,21.341,0,0,0,5.9-2.01,10.01,10.01,0,0,0,5.45-8.9v-1.8a9.994,9.994,0,0,0,1.23-4.81v-2.89C452.18-275.8,449.25-280.07,446.77-282.44Z" fill="#3d1c47"/>
      <path id="Caminho_8" data-name="Caminho 8" d="M401.08-254.06a17.86,17.86,0,0,0-12.31-4.37,28.932,28.932,0,0,0-11.42,2.12,17.473,17.473,0,0,0-8.71-2.12,17.592,17.592,0,0,0-5.59.89,19.263,19.263,0,0,0-5.98-.89,18.489,18.489,0,0,0-4.5.55,9.694,9.694,0,0,0-2.09-.22h-4.9a10.322,10.322,0,0,0-2.24.26,9.738,9.738,0,0,0-2.24-.26h-6.49a10.183,10.183,0,0,0-2.67.36,9.833,9.833,0,0,0-2.67-.36h-6.49a10,10,0,0,0-10,10v12.25a16.814,16.814,0,0,0,4.51,12.01,16.133,16.133,0,0,0,12.05,4.88,18.832,18.832,0,0,0,4.69-.57,9.907,9.907,0,0,0,2.18.24h4.9a10.322,10.322,0,0,0,2.24-.26,9.738,9.738,0,0,0,2.24.26h6.49a9.866,9.866,0,0,0,2.51-.32,9.944,9.944,0,0,0,2.52.32h6.51a10.023,10.023,0,0,0,2.53-.32,10.081,10.081,0,0,0,2.53.32h6.49a10.084,10.084,0,0,0,3.44-.62,16.618,16.618,0,0,0,5.68.95,20.047,20.047,0,0,0,5.18-.62,9.962,9.962,0,0,0,2.39.29h4.5a10,10,0,0,0,10-10v-12.33A16.2,16.2,0,0,0,401.08-254.06Z" fill="#3d1c47"/>
      <path id="Caminho_9" data-name="Caminho 9" d="M407.56-216.44l.08-.2a10.014,10.014,0,0,0-5.25-12.9,28.779,28.779,0,0,0-5.49-1.72,30.935,30.935,0,0,0-6.4-.65,24.78,24.78,0,0,0-11.06,2.39,9.927,9.927,0,0,0-6.04-2.04h-5.84a10.028,10.028,0,0,0-4.35.99,10.017,10.017,0,0,0-4.35-.99h-8.57a10,10,0,0,0-5.75,1.82,23.763,23.763,0,0,0-10.41-2.21c-8.33,0-13.33,3.44-16.06,6.32-3.83,4.04-5.77,9.47-5.77,16.14,0,6.72,1.95,12.17,5.8,16.22,2.74,2.88,7.74,6.31,16,6.31a23.663,23.663,0,0,0,10.38-2.2,9.96,9.96,0,0,0,5.8,1.87h5.81a10.028,10.028,0,0,0,4.35-.99,10.017,10.017,0,0,0,4.35.99h8.6a9.952,9.952,0,0,0,5.83-1.89,23.163,23.163,0,0,0,10.25,2.22,38.822,38.822,0,0,0,12.62-2,10,10,0,0,0,6.76-9.46V-211.5A9.76,9.76,0,0,0,407.56-216.44Z" fill="#3d1c47"/>
    </g>
    <g id="Grupo_11" transform="translate(-0.57 760.29)">
      <path id="Caminho_12-4" d="M261.28-245.37a1.886,1.886,0,0,0,2.48,0c15.42-13.37,24.97-20.13,24.97-30.65,0-8.32-5.89-15.21-14.16-15.21-5.43,0-9.59,3.13-12.27,7.83-2.67-4.69-6.83-7.83-12.27-7.83a13.97,13.97,0,0,0-13.49,10.45,1.9,1.9,0,0,0,1.28,2.35,1.9,1.9,0,0,0,2.35-1.28h0a10.27,10.27,0,0,1,9.86-7.74c5.39,0,9.18,4.79,10.45,9.25a1.885,1.885,0,0,0,2.32,1.32,1.908,1.908,0,0,0,1.32-1.32c.03-.09,2.65-9.25,10.45-9.25,5.92,0,10.38,4.91,10.38,11.43,0,8.41-8.22,14.47-22.43,26.72-8.66-7.43-15.53-12.66-19.44-17.78a1.894,1.894,0,0,0-2.65-.37,1.894,1.894,0,0,0-.37,2.65c0,.01.01.01.01.02C244.48-259.01,251.91-253.48,261.28-245.37Z" fill="#ea4e5c"/>
      <path id="Caminho_13-4" d="M238.17-274.57a1.9,1.9,0,0,0-1.89,1.89,1.9,1.9,0,0,0,1.89,1.89,1.9,1.9,0,0,0,1.89-1.89h0A1.9,1.9,0,0,0,238.17-274.57Z" fill="#ea4e5c"/>
      <path id="Caminho_10-4" d="M216.23-241.48a1.9,1.9,0,0,0-1.89,1.89,1.9,1.9,0,0,0,1.89,1.89,1.9,1.9,0,0,0,1.89-1.89h0A1.888,1.888,0,0,0,216.23-241.48Z" fill="#ea4e5c"/>
      <path id="Caminho_11-4" d="M293.67-234.93l-17.82,6.13a7.548,7.548,0,0,0-6.07-8.78,7.84,7.84,0,0,0-1.37-.12H256.17a1.9,1.9,0,0,1-.93-.24l-9.99-5.62a13.293,13.293,0,0,0-6.49-1.7h-13.4a5.675,5.675,0,0,0-5.35-3.78H208.67a1.886,1.886,0,0,0-1.89,1.88v34.03a1.9,1.9,0,0,0,1.89,1.89h11.34a5.666,5.666,0,0,0,5.29-3.64,17.33,17.33,0,0,1,6.17,1.83l9.89,5.93a24.083,24.083,0,0,0,22.37,1.28l35.29-15.54a7.292,7.292,0,0,0,4.1-9.46,7.285,7.285,0,0,0-9.45-4.09ZM221.9-216.9a1.893,1.893,0,0,1-1.89,1.88h-9.45v-30.25h9.45a1.9,1.9,0,0,1,1.89,1.89Zm75.69-7.97-.06.02-35.35,15.56a20.31,20.31,0,0,1-18.87-1.07l-9.89-5.93a20.842,20.842,0,0,0-7.74-2.35v-22.85h13.08a9.558,9.558,0,0,1,4.64,1.21l9.99,5.62a5.659,5.659,0,0,0,2.78.73h12.24a3.783,3.783,0,0,1,3.78,3.78,3.777,3.777,0,0,1-3.78,3.78H249.19a1.888,1.888,0,0,0-1.89,1.89,1.888,1.888,0,0,0,1.89,1.89h19.22a7.516,7.516,0,0,0,3.54-.88l22.99-7.9a3.5,3.5,0,0,1,4.57,1.93,3.5,3.5,0,0,1-1.92,4.57Z" fill="#ea4e5c"/>
    </g>
    <g id="Grupo_12" transform="translate(-17.57 749.29)">
      <path id="Caminho_20" d="M345.91-209.46q0,6.12-3,9.31c-2,2.12-4.93,3.19-8.8,3.19q-5.715,0-8.76-3.2t-3.05-9.33q0-6.06,3.03-9.26t8.81-3.2q5.79,0,8.78,3.17C344.91-216.67,345.91-213.55,345.91-209.46Zm-16.7,0q0,7.035,4.9,7.04a4.2,4.2,0,0,0,3.69-1.71,9.359,9.359,0,0,0,1.2-5.33,9.424,9.424,0,0,0-1.22-5.37,4.173,4.173,0,0,0-3.64-1.74q-4.935.015-4.93,7.11Zm44.19,12.17h-8.6l-8.87-17.1h-.15q.315,4.035.32,6.16v10.94h-5.81v-24.27h8.57l8.83,16.87h.1q-.225-3.675-.23-5.89v-10.98h5.84Zm14.99-14.21h10.48v13.08a28.7,28.7,0,0,1-9.38,1.46q-5.61,0-8.67-3.25t-3.06-9.28q0-5.88,3.35-9.15t9.4-3.27a21.059,21.059,0,0,1,4.33.43,18.157,18.157,0,0,1,3.54,1.1l-2.08,5.14a12.77,12.77,0,0,0-5.76-1.29,5.449,5.449,0,0,0-4.44,1.87,8.11,8.11,0,0,0-1.57,5.34,8.246,8.246,0,0,0,1.42,5.19,4.918,4.918,0,0,0,4.09,1.79,12.168,12.168,0,0,0,2.69-.28v-3.8H388.4v-5.08Z" fill="#ea4e5c"/>
      <path id="Caminho_19" d="M338.09-257.29l-1.2-4.55h-7.88l-1.23,4.55h-7.21l7.92-24.37h8.75l8.02,24.37Zm-2.56-9.92-1.05-3.98c-.24-.89-.54-2.03-.89-3.44s-.58-2.41-.69-3.02c-.1.56-.3,1.49-.59,2.79s-.94,3.85-1.95,7.65Zm23.46-9.22a5.638,5.638,0,0,1,4.87,2.57,12.294,12.294,0,0,1,1.8,7.12,12.349,12.349,0,0,1-1.82,7.18,5.811,5.811,0,0,1-5.05,2.6,6.872,6.872,0,0,1-1.86-.23,6.052,6.052,0,0,1-1.46-.62,7.844,7.844,0,0,1-1.49-1.33h-.4l-1.02,1.84H347.5v-25.83h6.49v5.84c0,.7-.08,1.9-.23,3.6h.23a5.962,5.962,0,0,1,2.18-2.11A6.222,6.222,0,0,1,358.99-276.43Zm-2.37,5.1a2.217,2.217,0,0,0-1.99.95,5.384,5.384,0,0,0-.63,2.97v.91a6.521,6.521,0,0,0,.63,3.31,2.247,2.247,0,0,0,2.06,1,1.908,1.908,0,0,0,1.76-1.17,7.553,7.553,0,0,0,.61-3.45c0-3.01-.82-4.52-2.44-4.52Zm24.1-5.1a9.625,9.625,0,0,1,1.61.13l.36.07-.58,6.13a9.676,9.676,0,0,0-2.21-.2,4.226,4.226,0,0,0-3.09.97,3.786,3.786,0,0,0-.96,2.8v9.25h-6.49v-18.81h4.83l1.01,3h.32a6.431,6.431,0,0,1,2.27-2.42A5.482,5.482,0,0,1,380.72-276.43Zm16.87,19.14-1.25-2.49h-.13a7.353,7.353,0,0,1-2.67,2.22,8.825,8.825,0,0,1-3.52.6,5.539,5.539,0,0,1-4.18-1.59,6.229,6.229,0,0,1-1.53-4.48,5.093,5.093,0,0,1,2.09-4.47,11.376,11.376,0,0,1,6.06-1.65l3.14-.1v-.27a2.041,2.041,0,0,0-1.72-2.32,1.88,1.88,0,0,0-.58,0,13.774,13.774,0,0,0-5.23,1.39l-1.88-4.28a18,18,0,0,1,8.3-1.69,8.046,8.046,0,0,1,5.6,1.79,6.384,6.384,0,0,1,1.98,5.01v12.33h-4.48Zm-4.82-4.25a2.916,2.916,0,0,0,2.02-.75,2.477,2.477,0,0,0,.84-1.94v-1.46l-1.49.07c-2.13.08-3.2.86-3.2,2.36C390.93-262.11,391.54-261.54,392.77-261.54Zm22.3,4.59q-4.62,0-7-2.49c-1.59-1.66-2.38-4.05-2.38-7.15a9.852,9.852,0,0,1,2.57-7.26c1.71-1.72,4.16-2.57,7.32-2.57a13.689,13.689,0,0,1,6.16,1.43l-1.91,4.8a21.183,21.183,0,0,0-2.18-.82,6.924,6.924,0,0,0-2.07-.31,2.8,2.8,0,0,0-2.44,1.23,5.879,5.879,0,0,0-.86,3.47q0,4.515,3.34,4.52a10.078,10.078,0,0,0,5.48-1.66v5.16A10.781,10.781,0,0,1,415.07-256.95Zm18.85,0c-3.13,0-5.57-.83-7.3-2.5a9.426,9.426,0,0,1-2.6-7.11c0-3.18.8-5.61,2.41-7.31a9,9,0,0,1,6.87-2.55,9.128,9.128,0,0,1,6.57,2.22,8.462,8.462,0,0,1,2.32,6.38v2.89H430.58a3.209,3.209,0,0,0,1.15,2.47,4.5,4.5,0,0,0,2.96.9,14.518,14.518,0,0,0,3.15-.32,15.539,15.539,0,0,0,3.11-1.1v4.67a11.278,11.278,0,0,1-3.15,1.07,24.14,24.14,0,0,1-3.88.29Zm-.39-15.06a2.686,2.686,0,0,0-1.92.73,3.416,3.416,0,0,0-.9,2.27h5.58a3.227,3.227,0,0,0-.77-2.17,2.487,2.487,0,0,0-1.99-.83Z" fill="#ea4e5c"/>
      <path id="Caminho_18" d="M336.21-229.29l-.81-2.34h-.38a5.191,5.191,0,0,1-2.27,1.98,7.861,7.861,0,0,1-3.41.69,6.37,6.37,0,0,1-4.83-1.8,7.065,7.065,0,0,1-1.73-5.09V-248.1h6.49v10.28a5.816,5.816,0,0,0,.52,2.79,1.817,1.817,0,0,0,1.72.94,2.505,2.505,0,0,0,2.39-1.32,10,10,0,0,0,.71-4.46v-8.23h6.49v18.81h-4.89Zm32.47,0v-10.23a6.1,6.1,0,0,0-.52-2.86,1.754,1.754,0,0,0-1.65-.96,2.333,2.333,0,0,0-2.19,1.28,8.847,8.847,0,0,0-.7,4v8.77h-6.51v-10.23a6.367,6.367,0,0,0-.5-2.86,1.7,1.7,0,0,0-1.61-.96,2.33,2.33,0,0,0-2.22,1.36,10.385,10.385,0,0,0-.7,4.45v8.24h-6.49V-248.1h4.9l.81,2.32h.38a4.839,4.839,0,0,1,2.17-1.98,7.356,7.356,0,0,1,3.23-.68q4.065,0,5.71,2.47h.51a5.257,5.257,0,0,1,2.22-1.82,7.486,7.486,0,0,1,3.13-.66,6.448,6.448,0,0,1,4.93,1.71,7.4,7.4,0,0,1,1.59,5.2v12.23h-6.49Zm23.18,0-1.25-2.49h-.13a7.353,7.353,0,0,1-2.67,2.22,8.825,8.825,0,0,1-3.52.6,5.539,5.539,0,0,1-4.18-1.59,6.229,6.229,0,0,1-1.53-4.48,5.106,5.106,0,0,1,2.1-4.48,11.376,11.376,0,0,1,6.06-1.65l3.14-.1v-.27a2.041,2.041,0,0,0-1.71-2.32,1.88,1.88,0,0,0-.58,0,13.774,13.774,0,0,0-5.23,1.39l-1.87-4.28a18,18,0,0,1,8.3-1.69,8.046,8.046,0,0,1,5.6,1.79,6.384,6.384,0,0,1,1.98,5.01v12.33h-4.51Zm-4.81-4.25a2.916,2.916,0,0,0,2.02-.75,2.477,2.477,0,0,0,.84-1.94v-1.46l-1.49.07c-2.13.08-3.2.86-3.2,2.36C385.2-234.11,385.82-233.54,387.05-233.54Z" fill="#ea4e5c"/>
    </g>
  </g>
</svg>
