<svg width="24" height="24" viewBox="0 0 24 24" fill="none" xmlns="http://www.w3.org/2000/svg">
<path d="M11.8185 11.5609C13.7222 11.5609 15.3704 10.9913 16.7175 9.86735C18.0642 8.74364 18.7472 7.3687 18.7472 5.78026C18.7472 4.19237 18.0644 2.81726 16.7173 1.69317C15.3702 0.56964 13.722 0 11.8185 0C9.91459 0 8.26658 0.56964 6.91969 1.69336C5.5728 2.81707 4.88981 4.19219 4.88981 5.78026C4.88981 7.3687 5.5728 8.74382 6.91969 9.86753C8.26702 10.9911 9.91525 11.5609 11.8185 11.5609ZM8.11186 2.6878C9.14534 1.82556 10.3577 1.40643 11.8185 1.40643C13.2791 1.40643 14.4917 1.82556 15.5254 2.6878C16.5588 3.55023 17.0614 4.56188 17.0614 5.78026C17.0614 6.99901 16.5588 8.01048 15.5254 8.87291C14.4917 9.73533 13.2791 10.1545 11.8185 10.1545C10.3581 10.1545 9.14578 9.73515 8.11186 8.87291C7.07815 8.01067 6.57556 6.99901 6.57556 5.78026C6.57556 4.56188 7.07815 3.55023 8.11186 2.6878Z" fill="white"/>
<path d="M23.9418 18.4548C23.903 17.9871 23.8244 17.477 23.7088 16.9383C23.592 16.3956 23.4417 15.8825 23.2617 15.4136C23.0756 14.9289 22.823 14.4503 22.5102 13.9916C22.1861 13.5155 21.8051 13.101 21.3775 12.7599C20.9305 12.403 20.3831 12.1161 19.7502 11.9068C19.1194 11.6986 18.4204 11.5931 17.6727 11.5931C17.379 11.5931 17.095 11.6936 16.5466 11.9916C16.209 12.1752 15.8142 12.3876 15.3735 12.6225C14.9967 12.8229 14.4862 13.0105 13.8556 13.1805C13.2404 13.3465 12.6158 13.4308 11.9991 13.4308C11.3828 13.4308 10.7582 13.3465 10.1426 13.1805C9.51274 13.0107 9.00203 12.823 8.62586 12.6227C8.18933 12.39 7.79428 12.1776 7.45169 11.9914C6.90367 11.6935 6.61968 11.5929 6.32602 11.5929C5.57807 11.5929 4.87927 11.6986 4.24873 11.907C3.61622 12.1159 3.06864 12.4028 2.62114 12.76C2.19361 13.1014 1.81261 13.5157 1.48867 13.9916C1.17636 14.4503 0.923533 14.9287 0.737422 15.4138C0.557675 15.8827 0.407338 16.3956 0.290579 16.9383C0.174699 17.4763 0.0963477 17.9866 0.0575014 18.4553C0.0193134 18.9137 0 19.3906 0 19.8726C0 21.1254 0.477349 22.1396 1.41866 22.8876C2.34834 23.6257 3.57825 24 5.07438 24H18.9256C20.4213 24 21.6512 23.6257 22.5811 22.8876C23.5226 22.1402 24 21.1256 24 19.8724C23.9998 19.3888 23.9802 18.9118 23.9418 18.4548ZM21.4188 21.8686C20.8045 22.3564 19.989 22.5935 18.9254 22.5935H5.07438C4.01061 22.5935 3.19505 22.3564 2.58098 21.8688C1.97853 21.3903 1.68575 20.7372 1.68575 19.8726C1.68575 19.4229 1.70353 18.9788 1.73909 18.5526C1.77376 18.1344 1.84465 17.675 1.94978 17.1868C2.05359 16.7047 2.18571 16.2522 2.34285 15.8426C2.49363 15.4499 2.69927 15.0609 2.9543 14.6863C3.19769 14.3293 3.47773 14.0229 3.78675 13.7761C4.07579 13.5452 4.44011 13.3562 4.8694 13.2145C5.26642 13.0834 5.7126 13.0116 6.19697 13.0008C6.25601 13.027 6.36114 13.077 6.53145 13.1697C6.87799 13.3581 7.27743 13.573 7.719 13.8083C8.21676 14.0731 8.85806 14.3122 9.62423 14.5186C10.4075 14.7299 11.2064 14.8372 11.9993 14.8372C12.7923 14.8372 13.5914 14.7299 14.3742 14.5188C15.1411 14.312 15.7821 14.0731 16.2806 13.808C16.7324 13.567 17.1207 13.3583 17.4672 13.1697C17.6375 13.0772 17.7427 13.027 17.8017 13.0008C18.2863 13.0116 18.7325 13.0834 19.1297 13.2145C19.5588 13.3562 19.9231 13.5454 20.2122 13.7761C20.5212 14.0227 20.8012 14.3291 21.0446 14.6865C21.2999 15.0609 21.5057 15.45 21.6563 15.8424C21.8136 16.2526 21.946 16.7049 22.0496 17.1866C22.1545 17.6757 22.2256 18.1353 22.2603 18.5528C22.296 18.9774 22.314 19.4216 22.3142 19.8726C22.314 20.7374 22.0213 21.3903 21.4188 21.8686Z" fill="white"/>
</svg>
